<svg xmlns="http://www.w3.org/2000/svg" viewBox="0 0 36.59 36.57"><title>step-2</title><path d="M20,37.34c-9.41.28-17.44-7.89-17.4-17.27A17.29,17.29,0,0,1,20,2.6,17.18,17.18,0,0,1,37.4,20.05,17.19,17.19,0,0,1,20,37.34Z" transform="translate(-1.7 -1.71)" fill="#1ba1e2"/><path d="M20.87,1.73A18.3,18.3,0,1,0,38.29,20.54,18.32,18.32,0,0,0,20.87,1.73ZM20,37.34c-9.41.28-17.44-7.89-17.4-17.27A17.29,17.29,0,0,1,20,2.6,17.18,17.18,0,0,1,37.4,20.05,17.19,17.19,0,0,1,20,37.34Z" transform="translate(-1.7 -1.71)" fill="#006eaf"/><path d="M22.83,20A4.71,4.71,0,0,0,24,16.33,4.52,4.52,0,0,0,19,13c-2.12.28-3.31,2.12-3.59,4.12l1.77.13a8.07,8.07,0,0,1,.19-.79,3.45,3.45,0,0,1,.84-1.44c1.28-1.21,4-.3,4.24,1.49.15,1.24-1,2.33-1.77,3.12-1.23,1.2-2.6,2.35-3.75,3.67A6.17,6.17,0,0,0,15,26.86h9.23l0-1.73-6.78.11Z" transform="translate(-1.7 -1.71)" fill="#fff"/></svg>