<svg xmlns="http://www.w3.org/2000/svg" viewBox="0 0 36.59 36.57"><title>step-1</title><path d="M20,37.34c-9.41.28-17.44-7.89-17.4-17.27A17.29,17.29,0,0,1,20,2.6,17.18,17.18,0,0,1,37.4,20.05,17.19,17.19,0,0,1,20,37.34Z" transform="translate(-1.7 -1.71)" fill="#1ba1e2"/><path d="M20.87,1.73A18.3,18.3,0,1,0,38.29,20.54,18.32,18.32,0,0,0,20.87,1.73ZM20,37.34c-9.41.28-17.44-7.89-17.4-17.27A17.29,17.29,0,0,1,20,2.6,17.18,17.18,0,0,1,37.4,20.05,17.19,17.19,0,0,1,20,37.34Z" transform="translate(-1.7 -1.71)" fill="#006eaf"/><path d="M16.53,16.55a6.87,6.87,0,0,0,3.79-3.32h1.12l0,13.56-1.76,0,0-10.46a7.66,7.66,0,0,1-3.16,1.86A14.2,14.2,0,0,1,16.53,16.55Z" transform="translate(-1.7 -1.71)" fill="#fdfdfe"/></svg>