<svg xmlns="http://www.w3.org/2000/svg" viewBox="0 0 36.59 36.57"><title>tick</title><path d="M37.87,20.34A18.3,18.3,0,1,1,20.45,1.53,18.26,18.26,0,0,1,37.87,20.34Z" transform="translate(-1.28 -1.51)" fill="#2d7600"/><path d="M19.6,37.13c-9.41.28-17.44-7.89-17.4-17.27A17.29,17.29,0,0,1,19.53,2.39,17.18,17.18,0,0,1,37,19.84,17.17,17.17,0,0,1,19.6,37.13Z" transform="translate(-1.28 -1.51)" fill="#60a817"/><path d="M16.28,29a2.79,2.79,0,0,1-2.94-1.58,11.52,11.52,0,0,0-2.62-3.36,1.14,1.14,0,0,1-.19-1.63,3.2,3.2,0,0,1,5-.45c.61.56.76.43,1.06-.24A35.86,35.86,0,0,1,23.37,12a4.49,4.49,0,0,1,4.36-1.22C29,11,29.25,12.1,28.34,13a41,41,0,0,0-9.68,15C18.41,28.73,17.7,29,16.28,29Z" transform="translate(-1.28 -1.51)" fill="#fefefe"/></svg>